<svg width="200" height="220" viewBox="0 0 200 220" xmlns="http://www.w3.org/2000/svg"><style>@keyframes breathe{0%,to{transform:translateY(0)}50%{transform:translateY(-5px)}}@keyframes flicker{0%,to{opacity:1;filter:drop-shadow(0 0 2px #ff0)}50%{opacity:.7;filter:drop-shadow(0 0 5px orange)}}@keyframes swing{0%,to{transform:rotate(-10deg)}50%{transform:rotate(-15deg)}}</style><path fill="#3e2723" d="M70 160h25v40H70zm35 0h25v40h-25z"/><path d="M60 200h35v10H60Zm45 0h35v10h-35Z" fill="#556b2f"/><g style="animation:breathe 3s ease-in-out infinite;transform-origin:bottom"><rect x="55" y="80" width="90" height="85" rx="10" fill="#4a5d23"/><rect x="20" y="85" width="35" height="70" rx="8" fill="#556b2f" style="animation:swing 2s ease-in-out infinite;transform-origin:50px 90px"/><rect x="145" y="85" width="35" height="70" rx="8" fill="#556b2f" transform="rotate(10 145 85)"/><circle cx="100" cy="50" r="38" fill="#6b8e23"/><rect x="85" y="72" width="30" height="10" rx="2" fill="#222"/><g style="animation:flicker .5s infinite"><circle cx="85" cy="55" r="7" fill="#ff4500"/><circle cx="115" cy="55" r="7" fill="#ff4500"/><circle cx="85" cy="55" r="2" fill="#fff"/><circle cx="115" cy="55" r="2" fill="#fff"/></g></g></svg>