<svg
    xmlns="http://www.w3.org/2000/svg"
    width="99.578"
    height="99.578"
    viewBox="0 0 99.578 99.578"
    xml:space="preserve"
    fill="yellow"
>
  <path
        d="M48.199 45.317c-.672-2.817-1.922-4.717-3.357-4.717v18.844c1.436 0 2.686-1.899 3.357-4.717v4.722h34.66v-3.308H58.891a3.13 3.13 0 1 1 0-6.261H82.86v-1.063H58.004a.708.708 0 1 1 0-1.417h24.855v-7.088h-34.66zm36.905-5.189v18.957c7.996 0 14.475-4.243 14.475-9.479s-6.479-9.478-14.475-9.478m-84.04.539H34.73v1.418H1.064zm13.112 6.379h24.453v1.417H14.176zm1.24 3.012h16.125v1.418H15.416zM0 54.312h30.125v1.416H0z"
    />
</svg>
