<svg width="250" height="250" viewBox="0 0 250 250" xmlns="http://www.w3.org/2000/svg"><style>@keyframes heavyStomp{0%,to{transform:translateY(0)}25%{transform:translateY(-8px) rotate(1deg)}50%{transform:translateY(0) scaleX(1.05)}}@keyframes pulseEnergy{0%,to{fill:#f40;filter:blur(1px)}50%{fill:#fc0;filter:blur(3px)}}@keyframes heavyArm{0%,to{transform:rotate(0deg)}50%{transform:rotate(10deg)}}</style><path fill="#2e3b14" stroke="#1a210a" stroke-width="2" d="M70 180h45v50H70zm65 0h45v50h-45z"/><rect x="60" y="220" width="55" height="20" rx="5" fill="#1a1a1a"/><rect x="135" y="220" width="55" height="20" rx="5" fill="#1a1a1a"/><g style="animation:heavyStomp 1.5s infinite ease-in-out;transform-origin:bottom"><rect x="50" y="80" width="150" height="110" rx="15" fill="#3d4f1e" stroke="#1a210a" stroke-width="4"/><rect x="65" y="95" width="120" height="30" rx="5" fill="#4a5d23" opacity=".6"/><path d="M70 140q55-10 110 5" stroke-width="5" fill="none" stroke-linecap="round" style="animation:pulseEnergy 2s infinite"/><g style="animation:heavyArm 1.5s infinite ease-in-out;transform-origin:60px 100px"><circle cx="50" cy="100" r="30" fill="#555"/><rect x="20" y="100" width="50" height="80" rx="10" fill="#556b2f"/></g><g style="animation:heavyArm 1.5s infinite reverse ease-in-out;transform-origin:190px 100px"><circle cx="200" cy="100" r="30" fill="#555"/><rect x="180" y="100" width="50" height="80" rx="10" fill="#556b2f"/></g><circle cx="125" cy="55" r="30" fill="#6b8e23" stroke="#1a210a" stroke-width="3"/><path fill="#1a1a1a" d="M110 65h30v12h-30z"/><circle cx="112" cy="52" r="5" fill="red"/><circle cx="138" cy="52" r="5" fill="red"/></g></svg>